<?xml version="1.0" encoding="UTF-8" standalone="no"?>
<!-- Created with Inkscape (http://www.inkscape.org/) -->

<svg
   width="388.49066mm"
   height="330.16394mm"
   viewBox="0 0 388.49066 330.16394"
   version="1.1"
   id="svg5"
   xmlns="http://www.w3.org/2000/svg"
   xmlns:svg="http://www.w3.org/2000/svg">
  <defs
     id="defs2" />
  <g
     id="layer1"
     transform="translate(1.2548161,-0.07707685)">
    <path
       style="fill:#ffffff;stroke-width:1.01152"
       d="m -0.85505417,328.63523 c -1.21692843,-3.17136 0.53044896,-21.1782 2.73922017,-28.23401 5.525872,-17.64904 16.612979,-33.31641 33.849354,-47.8329 22.260592,-18.74804 51.784276,-34.24708 90.53085,-47.52576 10.92451,-3.74396 18.55091,-5.71606 70.84318,-18.31961 24.73625,-5.96194 41.96846,-11.98517 61.15984,-21.37722 37.87086,-18.53383 68.75937,-45.44004 90.75104,-79.050922 12.65181,-19.33631 16.26951,-27.275129 26.04817,-57.161645 5.3709,-16.415135 9.92908,-28.73517902 10.7478,-29.04938594 1.2174,-0.46713041 1.42146,23.19341694 1.42146,164.80592294 V 330.24103 H 193.49845 c -176.026841,0 -193.79366697,-0.14695 -194.35350417,-1.6058 z"
       id="path55" />
  </g>
</svg>
